<svg width="80" height="80" viewBox="0 0 80 80" fill="none" xmlns="http://www.w3.org/2000/svg">
  <path fill-rule="evenodd" clip-rule="evenodd" d="M12 0C5.37258 0 0 5.37258 0 12V68C0 74.6274 5.37258 80 12 80H68C74.6274 80 80 74.6274 80 68V12C80 5.37258 74.6274 0 68 0H12ZM17.7045 21.1761C17.7045 22.2807 18.6 23.1761 19.7045 23.1761H26.392C27.4966 23.1761 28.392 24.0716 28.392 25.1761V50C28.392 51.1046 29.2875 52 30.392 52H33.6875C34.7921 52 35.6875 51.1046 35.6875 50V25.1761C35.6875 24.0716 36.5829 23.1761 37.6875 23.1761H44.375C45.4796 23.1761 46.375 22.2807 46.375 21.1761V19.0909C46.375 17.9863 45.4796 17.0909 44.375 17.0909H19.7045C18.6 17.0909 17.7045 17.9863 17.7045 19.0909V21.1761Z" fill="#F5F5F5" />
</svg>
